<?xml version="1.0" encoding="utf-8"?>
<!-- Generator: Adobe Illustrator 22.1.0, SVG Export Plug-In . SVG Version: 6.00 Build 0)  -->
<svg version="1.1" id="Layer_1" xmlns="http://www.w3.org/2000/svg" xmlns:xlink="http://www.w3.org/1999/xlink" x="0px" y="0px"
	 viewBox="0 0 70 43.6" style="enable-background:new 0 0 70 43.6;" xml:space="preserve">
<style type="text/css">
	.st0{fill:#303440;}
</style>
<path class="st0" d="M37.1,5.7L37.1,5.7C26.5-1.7,12.4-2,2,5.5c-1.9,1.1-2.7,4-1.4,5.6c1.3,1.9,3.7,2.1,5.6,1.1
	c8-5.6,18.6-5.6,26.6,0l0,0c10.7,7.5,24.7,7.7,35.1,0.2c1.9-1.1,2.7-4,1.4-5.6c-1.3-1.9-3.7-2.1-5.6-1.1
	C55.8,11.3,45.1,11.3,37.1,5.7z"/>
<path class="st0" d="M37.1,31.5L37.1,31.5C26.5,24.1,12.4,23.8,2,31.3c-1.9,1.1-2.7,4-1.4,5.6C2,38.7,4.4,39,6.2,37.9
	c8-5.6,18.6-5.6,26.6,0l0,0c10.7,7.5,24.7,7.7,35.1,0.2c1.9-1.1,2.7-4,1.4-5.6c-1.3-1.9-3.7-2.1-5.6-1.1
	C55.8,37.1,45.1,37.1,37.1,31.5z"/>
</svg>
